<svg xmlns="http://www.w3.org/2000/svg" fill="#000000" class="bi bi-collection" viewBox="0 0 16 16" id="Collection--Streamline-Bootstrap" height="16" width="16">
  <path d="M2.5 3.5a0.5 0.5 0 0 1 0 -1h11a0.5 0.5 0 0 1 0 1zm2 -2a0.5 0.5 0 0 1 0 -1h7a0.5 0.5 0 0 1 0 1zM0 13a1.5 1.5 0 0 0 1.5 1.5h13A1.5 1.5 0 0 0 16 13V6a1.5 1.5 0 0 0 -1.5 -1.5h-13A1.5 1.5 0 0 0 0 6zm1.5 0.5A0.5 0.5 0 0 1 1 13V6a0.5 0.5 0 0 1 0.5 -0.5h13a0.5 0.5 0 0 1 0.5 0.5v7a0.5 0.5 0 0 1 -0.5 0.5z" stroke-width="1"></path>
</svg>